<?xml version="1.0" encoding="UTF-8" standalone="no"?>
<svg
   xmlns:dc="http://purl.org/dc/elements/1.1/"
   xmlns:cc="http://creativecommons.org/ns#"
   xmlns:rdf="http://www.w3.org/1999/02/22-rdf-syntax-ns#"
   xmlns:svg="http://www.w3.org/2000/svg"
   xmlns="http://www.w3.org/2000/svg"
   xmlns:sodipodi="http://sodipodi.sourceforge.net/DTD/sodipodi-0.dtd"
   xmlns:inkscape="http://www.inkscape.org/namespaces/inkscape"
   version="1.0"
   width="192"
   height="192"
   viewBox="0 0 192 192"
   preserveAspectRatio="xMidYMid meet"
   id="svg36"
   sodipodi:docname="logo-192.svg"
   inkscape:version="0.92.4 (5da689c313, 2019-01-14)">
  <defs
     id="defs40" />
  <sodipodi:namedview
     pagecolor="#ffffff"
     bordercolor="#666666"
     borderopacity="1"
     objecttolerance="10"
     gridtolerance="10"
     guidetolerance="10"
     inkscape:pageopacity="0"
     inkscape:pageshadow="2"
     inkscape:window-width="1680"
     inkscape:window-height="987"
     id="namedview38"
     showgrid="false"
     units="px"
     inkscape:zoom="2.454"
     inkscape:cx="238.18256"
     inkscape:cy="117.76691"
     inkscape:window-x="1432"
     inkscape:window-y="-8"
     inkscape:window-maximized="1"
     inkscape:current-layer="svg36"
     inkscape:pagecheckerboard="false"
     showborder="true" />
  <metadata
     id="metadata26">
Created by potrace 1.13, written by Peter Selinger 2001-2015
<rdf:RDF>
  <cc:Work
     rdf:about="">
    <dc:format>image/svg+xml</dc:format>
    <dc:type
       rdf:resource="http://purl.org/dc/dcmitype/StillImage" />
    <dc:title></dc:title>
  </cc:Work>
</rdf:RDF>
</metadata>
  <rect
     style="fill:#00c8ff;fill-opacity:1;fill-rule:nonzero;stroke-width:0.76799995;paint-order:markers fill stroke"
     id="rect4552"
     width="192"
     height="192"
     x="0"
     y="-3.8146973e-06" />
  <g
     transform="matrix(0.0768,0,0,-0.0768,0,191.99998)"
     id="g34"
     style="fill:#001d26;fill-opacity:1;stroke:none">
    <path
       d="M 120,1250 V 120 H 1245 2370 V 1250 2380 H 1245 120 Z m 855,676 c 108,-27 182,-84 225,-174 12,-26 26,-55 31,-64 13,-26 11,-232 -2,-265 -32,-77 -42,-93 -83,-134 -46,-46 -139,-99 -175,-99 -11,0 -23,-4 -26,-10 -4,-6 -53,-10 -116,-10 H 720 V 960 750 H 615 510 v 583 c 0,450 3,586 12,595 10,10 64,12 218,9 113,-2 219,-7 235,-11 z m 813,-295 c 9,-5 34,-16 54,-25 58,-26 109,-101 146,-217 13,-39 16,-208 4,-225 -15,-23 -106,-34 -286,-34 -102,0 -186,-3 -186,-7 1,-5 6,-28 13,-53 31,-116 82,-150 222,-150 52,0 97,4 100,10 3,6 24,10 46,10 h 39 v -82 c 0,-80 -1,-83 -27,-95 -15,-7 -35,-13 -44,-13 -10,0 -21,-4 -24,-10 -8,-13 -262,-13 -270,0 -3,6 -14,10 -24,10 -77,0 -183,125 -230,271 -14,46 -14,262 0,308 48,150 104,231 185,270 27,13 56,27 64,31 21,12 196,12 218,1 z"
       id="path28"
       inkscape:connector-curvature="0"
       style="fill:#001d26;fill-opacity:1" />
    <path
       d="m 720,1555 v -195 h 79 c 85,0 130,14 178,54 60,50 66,189 12,267 -31,45 -97,69 -189,69 h -80 z"
       id="path30"
       inkscape:connector-curvature="0"
       style="fill:#001d26;fill-opacity:1" />
    <path
       d="m 1598,1449 c -15,-11 -34,-35 -41,-52 -24,-54 -37,-88 -37,-93 0,-2 62,-3 138,-2 l 137,3 -3,33 c -5,50 -28,97 -56,116 -35,23 -105,20 -138,-5 z"
       id="path32"
       inkscape:connector-curvature="0"
       style="fill:#001d26;fill-opacity:1" />
  </g>
</svg>
