<svg xmlns="http://www.w3.org/2000/svg" width="192" height="192" version="1.0">
  <path d="M0 0h192v192H0z" style="fill:#04d5ee;stroke-width:.76799995;paint-order:markers fill stroke"/>
  <g style="fill:#001a1e;stroke:none">
    <path d="M120 1250V120h2250v2260H120Zm855 676c108-27 182-84 225-174 12-26 26-55 31-64 13-26 11-232-2-265-32-77-42-93-83-134-46-46-139-99-175-99-11 0-23-4-26-10-4-6-53-10-116-10H720V750H510v583c0 450 3 586 12 595 10 10 64 12 218 9 113-2 219-7 235-11zm813-295c9-5 34-16 54-25 58-26 109-101 146-217 13-39 16-208 4-225-15-23-106-34-286-34-102 0-186-3-186-7 1-5 6-28 13-53 31-116 82-150 222-150 52 0 97 4 100 10s24 10 46 10h39v-82c0-80-1-83-27-95-15-7-35-13-44-13-10 0-21-4-24-10-8-13-262-13-270 0-3 6-14 10-24 10-77 0-183 125-230 271-14 46-14 262 0 308 48 150 104 231 185 270 27 13 56 27 64 31 21 12 196 12 218 1z" style="fill:#001a1e" transform="matrix(.0768 0 0 -.0768 0 192)"/>
    <path d="M720 1555v-195h79c85 0 130 14 178 54 60 50 66 189 12 267-31 45-97 69-189 69h-80zM1598 1449c-15-11-34-35-41-52-24-54-37-88-37-93 0-2 62-3 138-2l137 3-3 33c-5 50-28 97-56 116-35 23-105 20-138-5z" style="fill:#001a1e" transform="matrix(.0768 0 0 -.0768 0 192)"/>
  </g>
</svg>
